<?xml version="1.0" encoding="UTF-8"?><svg id="Layer_1" xmlns="http://www.w3.org/2000/svg" xmlns:xlink="http://www.w3.org/1999/xlink" viewBox="0 0 1298.82 397.55"><defs><style>.cls-1{fill:url(#linear-gradient);}.cls-2{fill:#1e150d;}.cls-3{fill:#fff;}.cls-4{fill:#ffd41d;}.cls-5{fill:#2f935a;}</style><linearGradient id="linear-gradient" x1="42.18" y1="186.22" x2="446.01" y2="186.22" gradientUnits="userSpaceOnUse"><stop offset="0" stop-color="#ffd41d"/><stop offset="1" stop-color="#ffa53f"/></linearGradient></defs><path class="cls-3" d="M664.38,69.58l6.64-17.45c1.55-.31.87.68,1.21,1.54,2.1,5.28,3.93,10.67,6.1,15.91h-13.96Z"/><path class="cls-2" d="M552.21,232.81h-24.29l-4.16-25.54h-29.54l-4.16,25.54h-22.1l24.51-140.8h35.23l24.51,140.8ZM497.29,188.16h23.19l-11.6-71.2-11.6,71.2Z"/><path class="cls-2" d="M563.37,92.01h38.07c24.07,0,35.89,12.27,35.89,34.8v71.2c0,22.53-11.82,34.8-35.89,34.8h-38.07V92.01ZM587.44,112.13v100.57h13.57c7.66,0,12.25-3.62,12.25-13.68v-73.22c0-10.06-4.6-13.68-12.25-13.68h-13.57Z"/><path class="cls-2" d="M688.75,206.86l18.38-114.85h22.1l-23.63,140.8h-35.89l-23.63-140.8h24.29l18.38,114.85Z"/><path class="cls-2" d="M764.45,151.35h33.04v20.11h-33.04v41.23h41.57v20.11h-65.64V92.01h65.64v20.11h-41.57v39.22Z"/><path class="cls-2" d="M842.35,130.83v101.98h-21.66V92.01h30.2l24.73,84.28v-84.28h21.44v140.8h-24.73l-29.98-101.98Z"/><path class="cls-2" d="M907.34,92.01h74.4v20.11h-25.16v120.69h-24.07v-120.69h-25.16v-20.11Z"/><path class="cls-2" d="M1015.21,92.01v108.62c0,10.06,4.81,13.68,12.47,13.68s12.47-3.62,12.47-13.68v-108.62h22.76v107.21c0,22.53-12.25,35.4-35.89,35.4s-35.88-12.87-35.88-35.4v-107.21h24.07Z"/><path class="cls-2" d="M1129.65,232.81c-1.31-3.62-2.19-5.83-2.19-17.3v-22.13c0-13.07-4.81-17.9-15.75-17.9h-8.32v57.33h-24.07V92.01h36.32c24.94,0,35.67,10.66,35.67,32.38v11.06c0,14.48-5.03,23.94-15.75,28.56,12.03,4.63,15.97,15.29,15.97,29.97v21.72c0,6.84.22,11.87,2.63,17.1h-24.51ZM1103.39,112.13v43.25h9.41c8.97,0,14.44-3.62,14.44-14.88v-13.88c0-10.06-3.72-14.48-12.25-14.48h-11.6Z"/><path class="cls-2" d="M1191.35,151.35h33.04v20.11h-33.04v41.23h41.57v20.11h-65.64V92.01h65.64v20.11h-41.57v39.22Z"/><rect class="cls-5" x="464.73" y="266.16" width="758.11" height="68.03"/><path class="cls-3" d="M468.75,326.44v-55.17h13.37l23.78,37.52h-7.05l23.12-37.52h13.37l.16,55.17h-14.92l-.16-33.34h2.54l-17.3,27.9h-7.22l-17.79-27.9h3.12v33.34h-15.01Z"/><path class="cls-3" d="M575.91,327.54c-4.59,0-8.83-.71-12.71-2.13-3.88-1.42-7.26-3.43-10.13-6.03-2.87-2.6-5.1-5.64-6.68-9.1-1.59-3.47-2.38-7.28-2.38-11.43s.79-7.96,2.38-11.43c1.58-3.47,3.81-6.5,6.68-9.1,2.87-2.6,6.24-4.61,10.13-6.03,3.88-1.42,8.12-2.13,12.71-2.13s8.9.71,12.75,2.13c3.85,1.42,7.2,3.43,10.04,6.03,2.84,2.6,5.07,5.63,6.68,9.1,1.61,3.47,2.42,7.28,2.42,11.43s-.81,7.97-2.42,11.47c-1.61,3.5-3.84,6.53-6.68,9.1-2.84,2.58-6.19,4.57-10.04,5.99-3.85,1.42-8.11,2.13-12.75,2.13ZM575.91,314.62c2.19,0,4.22-.37,6.11-1.1,1.89-.74,3.53-1.8,4.92-3.19,1.39-1.39,2.49-3.06,3.28-5,.79-1.94,1.19-4.1,1.19-6.46s-.4-4.58-1.19-6.5c-.79-1.92-1.89-3.57-3.28-4.97-1.39-1.39-3.03-2.46-4.92-3.19-1.89-.74-3.92-1.1-6.11-1.1s-4.22.37-6.11,1.1c-1.89.74-3.53,1.8-4.92,3.19-1.39,1.39-2.49,3.05-3.28,4.97-.79,1.92-1.19,4.09-1.19,6.5s.4,4.52,1.19,6.46c.79,1.94,1.89,3.61,3.28,5,1.39,1.39,3.03,2.46,4.92,3.19,1.89.74,3.92,1.1,6.11,1.1Z"/><path class="cls-3" d="M642.82,327.54c-8.47,0-15.09-2.23-19.84-6.7-4.75-4.47-7.13-10.8-7.13-18.99v-30.58h16.23v30.11c0,4.73.97,8.12,2.91,10.17,1.94,2.05,4.6,3.07,7.99,3.07s6.04-1.02,7.95-3.07c1.91-2.05,2.87-5.44,2.87-10.17v-30.11h15.99v30.58c0,8.2-2.38,14.53-7.13,18.99-4.75,4.47-11.37,6.7-19.84,6.7Z"/><path class="cls-3" d="M680.79,326.44v-55.17h13.37l31.65,36.73h-6.31v-36.73h15.91v55.17h-13.37l-31.65-36.73h6.31v36.73h-15.91Z"/><path class="cls-3" d="M759.09,326.44v-42.8h-17.63v-12.37h51.41v12.37h-17.55v42.8h-16.24Z"/><path class="cls-3" d="M789.18,326.44l25.34-55.17h15.99l25.42,55.17h-16.89l-19.84-47.52h6.4l-19.84,47.52h-16.56ZM803.04,315.72l4.18-11.51h28.04l4.18,11.51h-36.41Z"/><path class="cls-3" d="M860.52,326.44v-55.17h16.24v55.17h-16.24Z"/><path class="cls-3" d="M888.31,326.44v-55.17h13.37l31.65,36.73h-6.31v-36.73h15.91v55.17h-13.37l-31.65-36.73h6.31v36.73h-15.91Z"/><path class="cls-3" d="M254.95,159.47c-.41,1.08-11.59,18.85-12.39,19.7-6.32,6.58-23.25,12.69-29.76,21.83l-8.52,18.4-4.37-24.4c4.67-9.79,13.51-17.98,14.1-29.48-7.26,7.9-14.3,16.42-21.77,24.09-4.09,4.18-13.71,15.15-17.84,17.7-4.37,2.72-11.06,2.04-16.81,4.98-7.34,3.74-8.98,11.11-15.11,15.33l1.03,3.24c-5.95,1.12-8.9,6.08-14.69,8.84-.1.05-.21.09-.32.14-5.79,2.22-27.92-1.12-33.27,2.16,4.78-3.63,8.25-11.2,12.45-14.58,6.51-5.26,16.38-5.48,23.25-11.97,25.12-23.77,51.98-56.75,74.97-83.25,7.28-8.38,14.43-16.31,22.46-24.55,4.06-4.15,6.62-12.77,12.59-5.76,4.59,5.38,2.26,8.59,3.66,13.52.53,1.86,3.94,3.98,5.32,6.16,8.27,13.16-7.78,18.91-7.83,31.33,4.12.09,10.59-7.73,13.16-2.28,1.31,2.79.76,6.05-.31,8.85Z"/><path class="cls-4" d="M316.64,322.05c-44.42,23.95-100.27,31.99-150.22,32.63l43.6-7.39c33.57-7.51,69.34-16.45,99.33-33.67,55.23-31.69-19.89-34.4-43.58-38.21-1.89-.3-6.9-.41-7.64-2.1,21.81,1.89,45.31,1.59,66.73,6.07,46.43,9.71,15.02,30.13-8.23,42.68Z"/><path class="cls-1" d="M445.95,220.73c-.02-1.47-.08-2.92-.15-4.38h0c-.01-.5-.03-1-.07-1.49-5.48-106.63-93.66-191.38-201.64-191.38S42.18,113.88,42.18,225.4c0,1.51.01,3.02.06,4.53.01.65.02,1.31.05,1.97.16-.14.3-.25.44-.33,8.79-5.51,17.51-10.31,25.65-16.77,8.63-6.87,20.02-16.18,28.14-23.46,8.16-7.34,22.05-29.06,33.74-26.93,2.24.4,3.47,2.4,5.21,2.85,3.44.92,11.79,1.17,13.27,3.99,2.04,10.74-18.71,14.55-21.88,19.47-.76,1.18-.61,2.18-.55,3.46l3.44.57c-6.29,11.02-15.5,17.69-25.7,24.74l-9.26,22.84c.16-.1.31-.22.47-.33,4.78-3.63,8.25-11.2,12.45-14.58,6.51-5.26,16.38-5.48,23.25-11.97,25.12-23.77,51.98-56.75,74.97-83.25,7.28-8.38,14.43-16.31,22.46-24.55,4.06-4.15,6.62-12.77,12.59-5.76,4.59,5.38,2.26,8.59,3.66,13.52.53,1.86,3.94,3.98,5.32,6.16,8.27,13.16-7.78,18.91-7.83,31.33,4.12.09,10.59-7.73,13.16-2.28,1.31,2.79.76,6.05-.31,8.85-.41,1.08-11.59,18.85-12.39,19.7-6.32,6.58-23.25,12.69-29.76,21.83l-8.52,18.4-4.37-24.4c4.67-9.79,13.51-17.98,14.1-29.48-7.26,7.9-14.3,16.42-21.77,24.09-4.09,4.18-13.71,15.15-17.84,17.7-4.37,2.72-11.06,2.04-16.81,4.98-7.34,3.74-8.98,11.11-15.11,15.33l1.03,3.24c-5.95,1.12-8.9,6.08-14.69,8.84-.1.05-.21.09-.32.14-3.7,1.71-8.35,2.6-12.3,4.24-1.79.73-3.44,1.63-4.8,2.83,5.08.38,11.02-2.33,15.78-1.32.02,0,.03.01.05.01.18.05.36.09.52.14.08.02.16.05.24.07,3.37,1.07,5.07,6.75,10.94,5.7l-5.73,1.15,4.57,2.85-5.14.56-.6,2.29,4.57,1.73-2.27,2.85,11.45,5.18-5.73.56c.03.95-.1,1.94-.05,2.9.47,6.83,5.7,1.22,5.78,6.27-2.75.29-4.53-.88-6.8-2.08-1.38-.73.46-2.99-2.35.36l19.47,8.62c.53,5.64-8.9-1.27-11.19-2.02-1.1-.36-3.98-1.2-3.7.84l41.26,16.69v5.1s2.89-3.45,2.89-3.45l11.45,4.57c.14-4.16,7.27-3.37,8.45-2.1.78.85-.91,3.67,1.27,3.26l3.44-4.56.02,4.57c2.58-.68,1.25-4.43,4.57-3.44v3.45s4.59-2.29,4.59-2.29l-1.14,4.57,5.16-3.46,1.14,2.32,4.01-2.29,1.14,3.44,3.45-4.59.57,4.6c.72.03,2.68-7.29,4.59-1.16l4-4.57c-.11,1.91.45,4.36-.14,6.15-.55,1.65-15.71,5.58-18.83,6.4-41.68,10.86-93.31,17.93-136.39,19.55-1.39.06-4.25-.86-3.99,1.14,54.53,2.63,111.38-1.17,164.19-15.21,12.65-3.36,45.55-12.59,53.14-22.54,1.67-2.19,2.4-4.39.18-6.65-7.69-7.89-81.38-13.62-98.5-17.85-9.77-2.41-27.33-5.8-17.5-19.07,6.68-9,48.98-28.43,60.72-32.15.58-.18,1.88-.32,1.7.55-8.29,8.86-21.14,13.02-30.19,20.26-3.19,2.57-7.81,5.58-6.31,10.47,1.89,6.28,30.57,8.23,37.08,8.82,32.31,2.91,66.53,1,98.43,5.92,10.99,1.69,28.67,4.08,34.09,14.66l3.34-1.07c1.11,3.2-2.02,1.98-2.24,2.32-1.85,2.76,4.16,1.85,2.22,4.56-.09.14-2.59-1.5-3.41.56l4.56,4.01-5.72-1.14,1.14,4.57-3.43-1.15c.42,2.64-3.62,6.6-5.69,8.66-9.32,9.23-22.6,17.75-33.67,24.79l-42.04,18.14c20.6-3.66,42.75-10.25,60.66-21.29,6.59-4.06,18.85-13.37,22.44-20.06.83-1.54-1.74-3.08,1.63-3.86l-1.03-2.91,6.87,1.14-4.57-4.57,8.01,1.15c-.71-2.59,1.67-7.26,4.57-8.06-.53-2.75-6.99-.83-2.87-4.53l7.45,3.41c.78-4.77-7.53-2.3-6.86-6.87l5.72,1.15v-3.45s4.59,1.14,4.59,1.14l-3.34-4.49c2.97-1.74,3.81-3.27,7.93-2.38v-6.86s3.43,0,3.43,0l-1.14,5.72,4.56-4.61c.92-1.41-6.57-3.69-7.8-4.25-.76-.34-4.49-.34-2.5-2.6.36-.39,9.06,2.49,9.73,3.42l1.73-2.26-2.29-2.29,8.01,2.27-8.01-5.71,5.66-.1.07-3.35,3.45,1.74,5.14-11.01,4.01.09-3.44-2.3,4.59-1.14-2.29-3.43h4.6s-.01-2.91-.01-2.91c4.87,2.24-2.01-5.81,5.73-2.83l-2.28-4.59,5.72,2.28-.61-3.43,1.75-1.15,2.13,2.13c.01-.62.01-1.25.01-1.87,0-1.56-.02-3.11-.06-4.67ZM378.61,203.83c-5.38-3.19-7.88-12.98-12.65-17.15-3.85-3.37-8.81-2.71-12.62-5.73-5.04-3.99-8.82-13.16-14.94-16.58-.39,8.92,11.24,18.87,12.42,26.09.64,3.96-2.22,10.17-2.13,14.55.07,3.81,2.36,8.16,2.3,12.1-2.72-2.6-9.22-7.37-10.79-10.4-2.95-5.64-.4-14.8-10.94-13.63-.03,6.18-3.85,9.45-6.83,14.14,8.16,5.93,5.41,8.69,6.88,16.11.76,3.82,2.8,7.15,3.34,10.98-4.44-2.69-8.53-5.69-13.31-7.88-3.82-1.73-8.32-1.75-11.84-4.21-4.31-2.99-6.64-13.38-11.91-12.89-4.6.42-11.37,15.86-15.36,19.27l-43.87,18.3c7.62-7.96,17.97-15.49,23.43-25.28,4.56-8.17,4.64-22.16,10.91-28.07,6.6-6.23,34.37-10.3,36.73-16.02.91-2.2-5.73-2.74-6.42-2.74-2.53.02-16.29,3.06-16.48-.68,3.78-10.78,17.79-12.51,24.67-20.02,4.07-4.44,4.49-11.89,8.48-15.59,1.08-.99,20.11-10.83,21.31-10.8,2.94.06,12.73,11.19,10.63,14.69-.34.57-3.14,1.02-3.2,1.9,10.79,4.69,12.52,20.14,20.24,25.6,4.62,3.27,12.14,4.57,16.5,8.74,5.12,4.91,4.26,11.59,7.44,16.64,4.12,6.55,18.15,12.94,22.3,20.67l-34.3-12.12Z"/><path class="cls-5" d="M445.95,220.73l-2.08-1.9c2.16-.69,1.82-1.24,1.93-2.48h0c.03-.42.11-.92.36-1.52-.07-.05-.22-.02-.42.03-1.4.37-5.39,2.42-3.02-3.47l-2.85,2.28c-2.21-1.41-.01-3.29-1.69-5.09-6.78-7.3-18.3-15.1-25.89-22.37-6.44-6.17-12.71-15.72-19.98-21.29-5.55-4.26-14.64-6.4-19.17-10.08-6.17-5-14.96-19.82-21.03-26.55-4.48-4.98-7.73-10.12-15.13-8.32-6.13,1.49-30.43,18.22-32.23,17.86-5.03-3.19-9.72-8.72-14.85-11.52-11.6-6.34-11.06-5.68-21.43-14.11-4.57-3.73-26.76-22.25-30.41-22.25-7.07,0-18.48,18.1-23.47,23.45-16.57,17.76-35.08,33.84-52.83,50.41-6.91-2.04-16.73-2.32-23.16-4.29-3.13-.96-5.29-3.99-8.42-4.31-9.78-1-30.52,25.15-38.28,31.55l-49.68,43.18-3.07,2.67c.91,1.58,2.17.13,3.12-.7.16-.14.3-.25.44-.33,8.79-5.51,17.51-10.31,25.65-16.77,8.63-6.87,20.02-16.18,28.14-23.46,8.16-7.34,22.05-29.06,33.74-26.93,2.24.4,3.47,2.4,5.21,2.85,3.44.92,11.79,1.17,13.27,3.99,2.04,10.74-18.71,14.55-21.88,19.47-.76,1.18-.61,2.18-.55,3.46l3.44.57c-6.29,11.02-15.5,17.69-25.7,24.74l-9.26,22.84c3.28.24,11.35,5.22,19.64,6.06,4.62.47,10.56-3.32,12.77-2.79.02,0,.03.01.05.01.18.05.36.09.52.14.08.02.16.05.24.07,3.37,1.07,5.07,6.75,10.94,5.7l-5.73,1.15,4.57,2.85-5.14.56-.6,2.29,4.57,1.73-2.27,2.85,11.45,5.18-5.73.56c.03.95-.1,1.94-.05,2.9.47,6.83,5.7,1.22,5.78,6.27-2.75.29-4.53-.88-6.8-2.08-1.38-.73.46-2.99-2.35.36l19.47,8.62c.53,5.64-8.9-1.27-11.19-2.02-1.1-.36-3.98-1.2-3.7.84l41.26,16.69v5.1s2.89-3.45,2.89-3.45l11.45,4.57c.14-4.16,7.27-3.37,8.45-2.1.78.85-.91,3.67,1.27,3.26l3.44-4.56.02,4.57c2.58-.68,1.25-4.43,4.57-3.44v3.45s4.59-2.29,4.59-2.29l-1.14,4.57,5.16-3.46,1.14,2.32,4.01-2.29,1.14,3.44,3.45-4.59.57,4.6c.72.03,2.68-7.29,4.59-1.16l4-4.57c-.11,1.91.45,4.36-.14,6.15-.55,1.65-15.71,5.58-18.83,6.4-41.68,10.86-93.31,17.93-136.39,19.55-1.39.06-4.25-.86-3.99,1.14,54.53,2.63,111.38-1.17,164.19-15.21,12.65-3.36,45.55-12.59,53.14-22.54,1.67-2.19,2.4-4.39.18-6.65-7.69-7.89-81.38-13.62-98.5-17.85-9.77-2.41-27.33-5.8-17.5-19.07,6.68-9,48.98-28.43,60.72-32.15.58-.18,1.88-.32,1.7.55-8.29,8.86-21.14,13.02-30.19,20.26-3.19,2.57-7.81,5.58-6.31,10.47,1.89,6.28,30.57,8.23,37.08,8.82,32.31,2.91,66.53,1,98.43,5.92,10.99,1.69,28.67,4.08,34.09,14.66l3.34-1.07c1.11,3.2-2.02,1.98-2.24,2.32-1.85,2.76,4.16,1.85,2.22,4.56-.09.14-2.59-1.5-3.41.56l4.56,4.01-5.72-1.14,1.14,4.57-3.43-1.15c.42,2.64-3.62,6.6-5.69,8.66-9.32,9.23-22.6,17.75-33.67,24.79l-42.04,18.14c20.6-3.66,42.75-10.25,60.66-21.29,6.59-4.06,18.85-13.37,22.44-20.06.83-1.54-1.74-3.08,1.63-3.86l-1.03-2.91,6.87,1.14-4.57-4.57,8.01,1.15c-.71-2.59,1.67-7.26,4.57-8.06-.53-2.75-6.99-.83-2.87-4.53l7.45,3.41c.78-4.77-7.53-2.3-6.86-6.87l5.72,1.15v-3.45s4.59,1.14,4.59,1.14l-3.34-4.49c2.97-1.74,3.81-3.27,7.93-2.38v-6.86s3.43,0,3.43,0l-1.14,5.72,4.56-4.61c.92-1.41-6.57-3.69-7.8-4.25-.76-.34-4.49-.34-2.5-2.6.36-.39,9.06,2.49,9.73,3.42l1.73-2.26-2.29-2.29,8.01,2.27-8.01-5.71,5.66-.1.07-3.35,3.45,1.74,5.14-11.01,4.01.09-3.44-2.3,4.59-1.14-2.29-3.43h4.6s-.01-2.91-.01-2.91c4.87,2.24-2.01-5.81,5.73-2.83l-2.28-4.59,5.72,2.28-.61-3.43,1.75-1.15,2.29,2.29v-4.59s4.59,2.28,4.59,2.28l-4.79-4.39ZM242.55,179.17c-6.32,6.58-23.25,12.69-29.76,21.83l-8.52,18.4-4.37-24.4c4.67-9.79,13.51-17.98,14.1-29.48-7.26,7.9-14.3,16.42-21.77,24.09-4.09,4.18-13.71,15.15-17.84,17.7-4.37,2.72-11.06,2.04-16.81,4.98-7.34,3.74-8.98,11.11-15.11,15.33l1.03,3.24c-5.95,1.12-8.9,6.08-14.69,8.84-.1.05-.21.09-.32.14-5.79,2.22-27.92-1.12-33.27,2.16,4.78-3.63,8.25-11.2,12.45-14.58,6.51-5.26,16.38-5.48,23.25-11.97,25.12-23.77,51.98-56.75,74.97-83.25,7.28-8.38,14.43-16.31,22.46-24.55,4.06-4.15,6.62-12.77,12.59-5.76,4.59,5.38,2.26,8.59,3.66,13.52.53,1.86,3.94,3.98,5.32,6.16,8.27,13.16-7.78,18.91-7.83,31.33,4.12.09,10.59-7.73,13.16-2.28,1.31,2.79.76,6.05-.31,8.85-.41,1.08-11.59,18.85-12.39,19.7ZM378.61,203.83c-5.38-3.19-7.88-12.98-12.65-17.15-3.85-3.37-8.81-2.71-12.62-5.73-5.04-3.99-8.82-13.16-14.94-16.58-.39,8.92,11.24,18.87,12.42,26.09.64,3.96-2.22,10.17-2.13,14.55.07,3.81,2.36,8.16,2.3,12.1-2.72-2.6-9.22-7.37-10.79-10.4-2.95-5.64-.4-14.8-10.94-13.63-.03,6.18-3.85,9.45-6.83,14.14,8.16,5.93,5.41,8.69,6.88,16.11.76,3.82,2.8,7.15,3.34,10.98-4.44-2.69-8.53-5.69-13.31-7.88-3.82-1.73-8.32-1.75-11.84-4.21-4.31-2.99-6.64-13.38-11.91-12.89-4.6.42-11.37,15.86-15.36,19.27l-43.87,18.3c7.62-7.96,17.97-15.49,23.43-25.28,4.56-8.17,4.64-22.16,10.91-28.07,6.6-6.23,34.37-10.3,36.73-16.02.91-2.2-5.73-2.74-6.42-2.74-2.53.02-16.29,3.06-16.48-.68,3.78-10.78,17.79-12.51,24.67-20.02,4.07-4.44,4.49-11.89,8.48-15.59,1.08-.99,20.11-10.83,21.31-10.8,2.94.06,12.73,11.19,10.63,14.69-.34.57-3.14,1.02-3.2,1.9,10.79,4.69,12.52,20.14,20.24,25.6,4.62,3.27,12.14,4.57,16.5,8.74,5.12,4.91,4.26,11.59,7.44,16.64,4.12,6.55,18.15,12.94,22.3,20.67l-34.3-12.12Z"/><path class="cls-3" d="M412.91,215.95l-34.3-12.12c-5.38-3.19-7.88-12.98-12.65-17.15-3.85-3.37-8.81-2.71-12.62-5.73-5.04-3.99-8.82-13.16-14.94-16.58-.39,8.92,11.24,18.87,12.42,26.09.64,3.96-2.22,10.17-2.13,14.55.07,3.81,2.36,8.16,2.3,12.1-2.72-2.6-9.22-7.37-10.79-10.4-2.95-5.64-.4-14.8-10.94-13.63-.03,6.18-3.85,9.45-6.83,14.14,8.16,5.93,5.41,8.69,6.88,16.11.76,3.82,2.8,7.15,3.34,10.98-4.44-2.69-8.53-5.69-13.31-7.88-3.82-1.73-8.32-1.75-11.84-4.21-4.31-2.99-6.64-13.38-11.91-12.89-4.6.42-11.37,15.86-15.36,19.27l-43.87,18.3c7.62-7.96,17.97-15.49,23.43-25.28,4.56-8.17,4.64-22.16,10.91-28.07,6.6-6.23,34.37-10.3,36.73-16.02.91-2.2-5.73-2.74-6.42-2.74-2.53.02-16.29,3.06-16.48-.68,3.78-10.78,17.79-12.51,24.67-20.02,4.07-4.44,4.49-11.89,8.48-15.59,1.08-.99,20.11-10.83,21.31-10.8,2.94.06,12.73,11.19,10.63,14.69-.34.57-3.14,1.02-3.2,1.9,10.79,4.69,12.52,20.14,20.24,25.6,4.62,3.27,12.14,4.57,16.5,8.74,5.12,4.91,4.26,11.59,7.44,16.64,4.12,6.55,18.15,12.94,22.3,20.67Z"/><path class="cls-5" d="M316.64,322.05c-44.42,23.95-100.27,31.99-150.22,32.63l43.6-7.39c33.57-7.51,69.34-16.45,99.33-33.67,55.23-31.69-19.89-34.4-43.58-38.21-1.89-.3-6.9-.41-7.64-2.1,21.81,1.89,45.31,1.59,66.73,6.07,46.43,9.71,15.02,30.13-8.23,42.68Z"/><path class="cls-3" d="M986.13,325.33v-50.13h-19.39v-5.04h44.61v5.04h-19.39v50.13h-5.83Z"/><path class="cls-3" d="M1020.65,325.33v-55.17h20.65c6.99,0,12.49,1.67,16.51,5,4.02,3.34,6.03,7.97,6.03,13.91,0,3.89-.91,7.24-2.72,10.05-1.81,2.81-4.4,4.97-7.76,6.46-3.36,1.5-7.38,2.25-12.06,2.25h-17.42l2.6-2.68v20.18h-5.83ZM1026.48,305.62l-2.6-2.76h17.26c5.52,0,9.71-1.21,12.57-3.63,2.86-2.42,4.3-5.81,4.3-10.17s-1.43-7.83-4.3-10.25c-2.86-2.42-7.05-3.63-12.57-3.63h-17.26l2.6-2.76v33.18ZM1058.32,325.33l-14.19-20.02h6.3l14.27,20.02h-6.38Z"/><path class="cls-3" d="M1077.63,325.33v-55.17h37.83v5.04h-32v45.08h33.18v5.04h-39.01ZM1082.83,299.79v-4.97h29.16v4.97h-29.16Z"/><path class="cls-3" d="M1130.35,325.33v-55.17h5.83v55.17h-5.83ZM1135.4,311.61l-.24-7.09,33.42-34.36h6.7l-24.35,25.54-3.31,3.55-12.22,12.37ZM1170,325.33l-23.8-27.43,3.94-4.26,26.8,31.68h-6.94Z"/><path class="cls-3" d="M1200.42,325.8c-4.1,0-8.03-.67-11.78-2.01-3.76-1.34-6.66-3.06-8.71-5.16l2.29-4.49c1.94,1.89,4.56,3.48,7.84,4.77,3.28,1.29,6.74,1.93,10.36,1.93s6.29-.43,8.47-1.3c2.18-.87,3.78-2.04,4.81-3.51,1.03-1.47,1.54-3.1,1.54-4.89,0-2.15-.62-3.89-1.85-5.2-1.24-1.31-2.85-2.35-4.85-3.11-2-.76-4.2-1.43-6.62-2.01-2.42-.58-4.83-1.19-7.25-1.85-2.42-.66-4.64-1.54-6.66-2.64s-3.65-2.56-4.89-4.37c-1.24-1.81-1.85-4.19-1.85-7.13,0-2.73.72-5.24,2.17-7.53,1.44-2.29,3.66-4.12,6.66-5.52,3-1.39,6.83-2.09,11.51-2.09,3.1,0,6.17.43,9.22,1.3,3.05.87,5.67,2.06,7.88,3.59l-1.97,4.65c-2.37-1.58-4.88-2.73-7.53-3.47-2.65-.73-5.21-1.1-7.68-1.1-3.31,0-6.04.45-8.2,1.34-2.16.89-3.74,2.09-4.77,3.59-1.02,1.5-1.54,3.19-1.54,5.08,0,2.16.62,3.89,1.85,5.2,1.23,1.31,2.86,2.34,4.89,3.07,2.02.74,4.24,1.39,6.66,1.97,2.42.58,4.82,1.21,7.21,1.89,2.39.68,4.6,1.56,6.62,2.64,2.02,1.08,3.65,2.51,4.89,4.3,1.23,1.79,1.85,4.13,1.85,7.01,0,2.68-.74,5.16-2.21,7.45-1.47,2.29-3.72,4.13-6.74,5.52-3.02,1.39-6.9,2.09-11.62,2.09Z"/></svg>